# xmcd CD database file
#
# Track frame offsets:
#	150
#	14125
#	27432
#	39702
#	52870
#	65761
#	77389
#	95000
#	107803
#	119806
#	131319
#	144435
#	156296
#	169701
#	183118
#	196444
#
# Disc length: 2755 seconds
#
# Revision: 0
# Processed by: cddbd v1.5.2PL0 Copyright (c) Steve Scherf et al.
# Submitted via: CDex 1.51
#
DISCID=de0ac110
DTITLE=Howlin' Wolf - Evil
DYEAR=2009
DGENRE=Blues
TTITLE0=Smokestack Lightnin'
TTITLE1=Moanin' At Midnight
TTITLE2=How Many More Years?
TTITLE3=Baby How Long?
TTITLE4=I Asked For Water (She Gave Me Gasoline)
TTITLE5=Who Will Be Next?
TTITLE6=Crying At Daybreak
TTITLE7=Forty Four
TTITLE8=Riding In The Moonlight
TTITLE9=Saddle My Pony (Gonna Find My Baby Out In The World)
TTITLE10=Evil (Is Going On)
TTITLE11=Oh Red!
TTITLE12=The Wolf Is At Your Door (Howlin' For My Baby)
TTITLE13=My Last Affair
TTITLE14=I Love My Baby
TTITLE15=All Night Boogie (All Night Long)
EXTD=YEAR: 2009
EXTT0=
EXTT1=
EXTT2=
EXTT3=
EXTT4=
EXTT5=
EXTT6=
EXTT7=
EXTT8=
EXTT9=
EXTT10=
EXTT11=
EXTT12=
EXTT13=
EXTT14=
EXTT15=
PLAYORDER=
